<svg xmlns="http://www.w3.org/2000/svg" version="1.1" xmlns:xlink="http://www.w3.org/1999/xlink" xmlns:svgjs="http://svgjs.dev/svgjs" width="1440" height="1080" preserveAspectRatio="none" viewBox="0 0 1440 1080"><g mask="url(&quot;#SvgjsMask1007&quot;)" fill="none"><rect width="1440" height="1080" x="0" y="0" fill="rgba(255, 255, 255, 1)"></rect><path d="M1058.68 0C1116.04 70.47 1021.05 145.8 1029.77 270C1031.71 297.68 1054.61 303.75 1080 303.75C1106.72 303.75 1126.3 298.87 1134 270C1166.8 146.99 1097.34 79.57 1161 0C1205.34 -55.43 1255.5 0 1350 0C1485 0 1552.5 -67.5 1620 0C1687.5 67.5 1620 135 1620 270C1620 405 1620 405 1620 540C1620 675 1620 675 1620 810C1620 901.73 1663.42 929.19 1620 993.46C1572.21 1064.19 1531.73 1049.82 1437.57 1080C1396.73 1093.09 1393.78 1080 1350 1080C1215 1080 1215 1080 1080 1080C945 1080 945 1080 810 1080C746.47 1080 745.65 1087.43 682.94 1080C610.65 1071.44 608.7 1048.03 540 1048.03C511.92 1048.03 518.32 1076.57 489.38 1080C383.32 1092.56 379.69 1080 270 1080C135 1080 76.94 1138.06 0 1080C-58.06 1036.18 -18.04 971.99 0 876.23C7.39 836.99 50.87 842.56 50.87 810C50.87 779.18 6.97 786.47 0 749.48C-18.47 651.47 0 644.74 0 540C0 405 0 405 0 270C0 135 -67.5 67.5 0 0C67.5 -67.5 135 0 270 0C405 0 405 0 540 0C675 0 675 0 810 0C934.34 0 1006.15 -64.53 1058.68 0" stroke="rgba(57, 166, 0, 0.6)" stroke-width="2"></path><path d="M1080 756C1041.15 756 999.57 783 999.57 810C999.57 837 1041.15 864 1080 864C1113.95 864 1145.17 837 1145.17 810C1145.17 783 1113.95 756 1080 756" stroke="rgba(57, 166, 0, 0.6)" stroke-width="2"></path><path d="M456.21 0C503.7 9.94 495.59 56.51 540 56.51C601.43 56.51 600.94 14.01 667.89 0C735.94 -14.24 738.94 0 810 0C845.53 0 874.51 -28.11 881.05 0C905.91 106.89 821.09 163.66 872.79 270C920.57 368.27 975.25 409.22 1080 409.22C1190.23 409.22 1201.96 350.19 1302.75 270C1336.96 242.78 1322.8 194.4 1350 194.4C1381.43 194.4 1377.53 242.08 1420 270C1512.53 330.83 1562.82 294.7 1620 371.89C1662.82 429.7 1620 455.94 1620 540C1620 675 1620 675 1620 810C1620 858.46 1654.96 886.16 1620 906.92C1519.96 966.32 1457.96 999.5 1350 970.31C1278.73 951.04 1320.56 877.91 1261.55 810C1185.56 722.54 1174.56 659.57 1080 659.57C971.77 659.57 955.03 723.1 855.96 810C820.03 841.51 851.22 876.93 810 896.4C693.24 951.54 667 908.66 540 959.21C436.37 1000.46 448.89 1035.2 348.75 1080C313.89 1095.6 309.38 1080 270 1080C135 1080 105.22 1109.78 0 1080C-29.78 1071.57 -17.73 1035.77 0 1003.58C56.62 900.77 148.7 905.15 148.7 810C148.7 719.91 53 729.33 0 633.1C-21.35 594.33 0 586.55 0 540C0 405 0 405 0 270C0 135 -67.5 67.5 0 0C67.5 -67.5 135 0 270 0C363.11 0 368.7 -18.31 456.21 0" stroke="rgba(57, 166, 0, 0.6)" stroke-width="2"></path><path d="M1350 506.25C1345.9 506.25 1341.56 523.79 1341.56 540C1341.56 547.42 1345.87 553.5 1350 553.5C1354.06 553.5 1357.94 547.35 1357.94 540C1357.94 523.73 1354.09 506.25 1350 506.25" stroke="rgba(57, 166, 0, 0.6)" stroke-width="2"></path><path d="M905.63 1080C905.63 1047.24 991.62 960.43 1080 960.43C1173.92 960.43 1270.23 1047.63 1270.23 1080C1270.23 1107.41 1175.11 1080 1080 1080C992.82 1080 905.63 1107.02 905.63 1080" stroke="rgba(57, 166, 0, 0.6)" stroke-width="2"></path><path d="M353.08 270C443.43 234.66 449.6 213.49 540 213.49C593.68 213.49 641.25 236.68 641.25 270C641.25 308.33 584.05 307.21 540 356.79C464.1 442.21 401.35 452.69 401.35 540C401.35 615.55 469.25 612.69 540 682.5C606.08 747.69 675 757.7 675 810C675 851.65 611.28 853.62 540 870.39C408.78 901.26 377.86 927.48 270 905.29C231.12 897.29 270.8 851.97 246.52 810C165.15 669.33 52.62 667.22 58.7 540C64.36 421.76 158.13 421.7 270 319.09C305.32 286.7 308.43 287.46 353.08 270" stroke="rgba(57, 166, 0, 0.6)" stroke-width="2"></path><path d="M1012.5 540C1012.5 527.83 1046.91 514.69 1080 514.69C1105.98 514.69 1130.63 527.79 1130.63 540C1130.63 552.01 1105.88 563.14 1080 563.14C1046.82 563.14 1012.5 552.05 1012.5 540" stroke="rgba(57, 166, 0, 0.6)" stroke-width="2"></path><path d="M1556.47 540C1566.26 506.18 1599.37 499.25 1620 499.25C1631.14 499.25 1620 519.63 1620 540C1620 675 1620 675 1620 810C1620 815.19 1624.63 820.38 1620 820.38C1579.63 820.38 1537.95 845.1 1530 810C1506.19 704.91 1521.26 661.56 1556.47 540" stroke="rgba(57, 166, 0, 0.6)" stroke-width="2"></path><path d="M1046.25 1080C1046.25 1073.66 1062.89 1056.86 1080 1056.86C1098.18 1056.86 1116.82 1073.73 1116.82 1080C1116.82 1085.3 1098.41 1080 1080 1080C1063.13 1080 1046.25 1085.23 1046.25 1080" stroke="rgba(57, 166, 0, 0.6)" stroke-width="2"></path></g><defs><mask id="SvgjsMask1007"><rect width="1440" height="1080" fill="#ffffff"></rect></mask></defs></svg>